<svg class="svg-icon" style="width: 1em;height: 1em;vertical-align: middle;fill: currentColor;overflow: hidden;" viewBox="0 0 1024 1024" version="1.1" xmlns="http://www.w3.org/2000/svg"><path d="M759.67315 959.645496c-3.795594 2.004415-3.582358 2.81471 0.213235 0.895589a9.723543 9.723543 0 0 0 2.985299-2.004414c0-0.682354-0.085294-0.59706-3.198534 1.108825z m7.591187-4.008829c-1.791179 1.407355-1.791179 1.492649 0.383824 0.383824 1.194119-0.59706 2.21765-1.279414 2.217651-1.49265 0-0.810295-0.511765-0.59706-2.601475 1.108826z m4.989713-3.027946c-1.791179 1.407355-1.791179 1.492649 0.383824 0.383824 1.194119-0.59706 2.21765-1.279414 2.217651-1.492649 0-0.810295-0.511765-0.59706-2.601475 1.108825z m4.989713-2.985298c-1.791179 1.407355-1.791179 1.492649 0.383824 0.383824 1.194119-0.59706 2.21765-1.279414 2.217651-1.49265 0-0.810295-0.511765-0.59706-2.601475 1.108826z m6.908834-4.477948c-3.497064 2.21765-4.605889 3.710299-1.492649 2.004415 2.21765-1.279414 5.800008-4.008829 5.202948-4.094124a19.873558 19.873558 0 0 0-3.710299 2.089709zM478.244804 0.255883c-2.21765 0.213236-9.211778 0.89559-15.523551 1.407355-145.341385 13.092666-281.51364 91.52072-367.746117 212.084128a506.477198 506.477198 0 0 0-90.3266 223.59885c-4.094124 28.104452-4.605889 36.420641-4.605889 74.547166s0.511765 46.400067 4.605889 74.547166c27.805922 192.167923 164.575236 353.62992 350.047562 413.463829 33.222107 10.704427 68.235392 17.997085 108.025155 22.389738 15.523552 1.705885 82.522177 1.705885 98.045729 0 68.70451-7.591187 126.960476-24.607388 184.3635-53.90596 8.785307-4.520595 10.491192-5.714714 9.297072-6.695597a9882.617134 9882.617134 0 0 1-83.332473-111.735455l-81.839823-110.541335-102.523677-151.738453a14159.270334 14159.270334 0 0 0-103.248677-151.653159c-0.383824-0.085294-0.810295 67.339803-0.980884 149.648744-0.29853 144.147266-0.383824 149.947274-2.21765 153.359044a18.082379 18.082379 0 0 1-8.785307 9.083836c-3.198534 1.620591-6.013244 1.91912-21.110325 1.919121H333.074008l-4.605889-2.900004a18.850027 18.850027 0 0 1-6.695598-7.292658l-2.089709-4.520595 0.213236-200.569405 0.298529-200.6547 3.11324-3.880888a27.166215 27.166215 0 0 1 7.420599-6.098538c4.094124-2.004415 5.714714-2.21765 23.029445-2.217651 20.427971 0 23.797093 0.810295 29.127983 6.610304a19908.955062 19908.955062 0 0 1 123.463413 185.984091c66.444213 100.732498 157.239932 238.26946 201.891466 305.822498l81.029528 122.738411 4.094124-2.686768a526.265462 526.265462 0 0 0 105.125151-92.245721 509.206614 509.206614 0 0 0 120.435467-261.597435c4.094124-28.104452 4.605889-36.420641 4.605889-74.547166s-0.511765-46.400067-4.605889-74.547165c-27.805922-192.167923-164.575236-353.62992-350.047562-413.46383a535.306651 535.306651 0 0 0-106.532506-22.304443c-9.595602-0.980884-75.741285-2.089709-84.014826-1.279414z m209.482654 309.532797a20.086794 20.086794 0 0 1 10.107368 11.813252c0.810295 2.601474 0.980884 58.213319 0.810295 183.553205l-0.29853 179.885553-31.729457-48.617717-31.814752-48.617717v-130.75607c0-84.526592 0.383824-132.035484 0.980884-134.338428a20.641206 20.641206 0 0 1 9.894132-12.623548c4.094124-2.089709 5.586773-2.302944 21.32356-2.302944 14.798551 0 17.400025 0.213236 20.7265 2.004414z"  /></svg>